# xmcd
#
# Track frame offsets:
# 151
# 27724
# 40801
# 54800
# 84653
# 95066
#
# Disc length: 1389 seconds
#
# Revision: 0
# Processed by: cddbd v1.5.1PL0 Copyright (c) Steve Scherf et al.
# Submitted via: Audion 3.0.2 (http://www.panic.com/audion/)
#
DISCID=47056b06
DTITLE=Me - Home Phish
DYEAR=1900
DGENRE=
TTITLE0=Curtain
TTITLE1=AC/DC BAg
TTITLE2=Harry Hood
TTITLE3=Moma Dance
TTITLE4=Tweezer Reprise
TTITLE5=Camel Walk
EXTD=
EXTT0=
EXTT1=
EXTT2=
EXTT3=
EXTT4=
EXTT5=
PLAYORDER=
